# xmcd
#
# Track frame offsets: 
#        150
#        19729
#        30078
#        41736
#        52952
#        69214
#        83663
#        98393
#        123303
#        138375
#        154348
#        165757
#        188049
#        198989
#
# Disc length: 2851 seconds
#
# Revision: 3
# Processed by: cddbd v1.5.1PL2 Copyright (c) Steve Scherf et al.
# Submitted via: ExactAudioCopy v0.95a5
#
DISCID=9c0b210e
DTITLE=Frank Black - Fast Man Raider Man [CD2]
DYEAR=2006
DGENRE=Rock
TTITLE0=In The Time Of My Ruin
TTITLE1=Down To You
TTITLE2=Highway To Lowdown
TTITLE3=Kiss My Ring
TTITLE4=My Terrible Ways
TTITLE5=Fitzgerald
TTITLE6=Elijah
TTITLE7=It's Just Not Your Moment
TTITLE8=The Real El Ray
TTITLE9=Where The Wind Is Going
TTITLE10=Holland Town
TTITLE11=Sad Old World
TTITLE12=Don't Cry That Way
TTITLE13=Fare Thee Well
EXTD=
EXTT0=
EXTT1=
EXTT2=
EXTT3=
EXTT4=
EXTT5=
EXTT6=
EXTT7=
EXTT8=
EXTT9=
EXTT10=
EXTT11=
EXTT12=
EXTT13=
PLAYORDER=
